HIERARCHY
ROOT Hips
{
	OFFSET 0.000000 0.000000 0.000000
	CHANNELS 6 Xposition Yposition Zposition Zrotation Yrotation Xrotation 
	JOINT LHipJoint
	{
		OFFSET 0.069520 -0.091406 -0.006815
		CHANNELS 3 Zrotation Yrotation Xrotation
		JOINT LeftLeg
		{
			OFFSET 0.034277 -0.375199 -0.004496
			CHANNELS 3 Zrotation Yrotation Xrotation
			JOINT LeftFoot
			{
				OFFSET -0.013596 -0.397961 -0.043693
				CHANNELS 3 Zrotation Yrotation Xrotation
				JOINT LeftToeBase
				{
					OFFSET 0.026358 -0.055791 0.119288
					CHANNELS 3 Zrotation Yrotation Xrotation
					End Site
					{
						OFFSET 0.000000 0.000000 0.000000
					}
				}
			}
		}
	}
	JOINT RHipJoint
	{
		OFFSET -0.067670 -0.090522 -0.004320
		CHANNELS 3 Zrotation Yrotation Xrotation
		JOINT RightLeg
		{
			OFFSET -0.038290 -0.382569 -0.008850
			CHANNELS 3 Zrotation Yrotation Xrotation
			JOINT RightFoot
			{
				OFFSET 0.015774 -0.398415 -0.042312
				CHANNELS 3 Zrotation Yrotation Xrotation
				JOINT RightToeBase
				{
					OFFSET -0.025372 -0.048144 0.123348
					CHANNELS 3 Zrotation Yrotation Xrotation
					End Site
					{
						OFFSET 0.000000 0.000000 0.000000
					}
				}
			}
		}
	}
	JOINT LowerBack
	{
		OFFSET -0.002533 0.108963 -0.026696
		CHANNELS 3 Zrotation Yrotation Xrotation
		JOINT Spine1
		{
			OFFSET 0.005487 0.135180 0.001092
			CHANNELS 3 Zrotation Yrotation Xrotation
			JOINT Spine2
			{
				OFFSET 0.001457 0.052922 0.025425
				CHANNELS 3 Zrotation Yrotation Xrotation
				JOINT Neck
				{
					OFFSET -0.002778 0.213870 -0.042857
					CHANNELS 3 Zrotation Yrotation Xrotation
					JOINT Neck1
					{
						OFFSET 0.005152 0.064970 0.051349
						CHANNELS 3 Zrotation Yrotation Xrotation
						End Site
						{
							OFFSET 0.000000 0.000000 0.000000
						}
					}
				}
				JOINT LeftShoulder
				{
					OFFSET 0.078845 0.121749 -0.034090
					CHANNELS 3 Zrotation Yrotation Xrotation
					JOINT LeftArm
					{
						OFFSET 0.090977 0.030469 -0.008868
						CHANNELS 3 Zrotation Yrotation Xrotation
						JOINT LeftForeArm
						{
							OFFSET 0.259612 -0.012772 -0.027456
							CHANNELS 3 Zrotation Yrotation Xrotation
							JOINT LeftHand
							{
								OFFSET 0.249234 0.008986 -0.001171
								CHANNELS 3 Zrotation Yrotation Xrotation
								End Site
								{
									OFFSET 0.000000 0.000000 0.000000
								}
							}
						}
					}
				}
				JOINT RightShoulder
				{
					OFFSET -0.081759 0.118833 -0.038615
					CHANNELS 3 Zrotation Yrotation Xrotation
					JOINT RightArm
					{
						OFFSET -0.096012 0.032551 -0.009143
						CHANNELS 3 Zrotation Yrotation Xrotation
						JOINT RightForeArm
						{
							OFFSET -0.253742 -0.013329 -0.021401
							CHANNELS 3 Zrotation Yrotation Xrotation
							JOINT RightHand
							{
								OFFSET -0.255298 0.007772 -0.005559
								CHANNELS 3 Zrotation Yrotation Xrotation
								End Site
								{
									OFFSET 0.000000 0.000000 0.000000
								}
							}
						}
					}
				}
			}
		}
	}
}
MOTION
Frames: 16
Frame Time: 0.050000
-0.085151 1.055200 3.506820 -9.998656 5.407450 -0.037074 0.712299 0.678287 9.764814 4.531960 -1.194847 8.954751 -1.919087 2.306415 12.262043 0.000000 0.000000 0.000000 0.808843 2.887324 -30.402586 11.687414 -6.123097 46.308846 -9.806939 -23.112287 4.554165 0.000000 0.000000 0.000000 1.396754 -1.272482 18.707112 -0.810688 0.871789 -21.355491 -2.499603 -3.914959 26.957378 6.651969 -2.137598 -28.364694 0.000000 0.000000 0.000000 -7.807522 -24.179484 9.840260 -20.997584 -22.361982 -0.598983 13.225606 -19.367284 -1.527310 0.000000 0.000000 0.000000 17.718274 9.225298 3.896618 50.334519 4.949082 -5.111784 5.093919 26.597999 2.199784 0.000000 0.000000 0.000000 
-0.077727 1.030811 3.599476 -8.890029 7.553445 -0.080441 0.418851 0.971666 14.919529 5.536322 -1.455153 9.617377 -2.269107 0.129250 8.377727 0.000000 0.000000 0.000000 0.780025 2.978609 -34.695665 9.245765 -2.952220 26.190247 -9.607243 -22.211094 6.537555 0.000000 0.000000 0.000000 1.792724 -1.412030 18.813515 1.520622 0.203450 -18.313048 -4.422674 -5.219068 24.734987 5.075982 -1.276846 -27.553682 0.000000 0.000000 0.000000 -2.325362 -26.590890 9.557593 -15.462441 -26.917787 -0.282985 16.704023 -14.671630 -1.596059 0.000000 0.000000 0.000000 15.626483 8.003453 3.131107 47.272845 -2.001454 -7.111594 3.905709 24.187874 1.657526 0.000000 0.000000 0.000000 
-0.068477 0.991577 3.695071 -7.458829 9.201802 1.395066 -0.032153 1.262016 20.401938 5.901578 -1.317296 7.664610 -2.333982 -0.961413 6.337614 0.000000 0.000000 0.000000 -0.523650 2.530803 -38.072210 7.274311 -1.365119 11.201673 -8.924171 -20.260952 11.001319 0.000000 0.000000 0.000000 2.542328 -1.400997 16.896519 1.608018 0.262524 -19.549503 -6.497920 -8.792837 27.062849 3.480675 -0.842774 -28.470866 0.000000 0.000000 0.000000 2.182037 -25.209092 8.163391 -11.862090 -29.541605 -0.493157 19.552372 -12.601943 -1.588462 0.000000 0.000000 0.000000 13.918527 7.045277 2.175576 41.157170 -7.497616 -7.887476 7.021545 20.712265 1.763051 0.000000 0.000000 0.000000 
-0.060611 0.946612 3.794414 -6.314557 9.229168 1.322585 1.640245 0.999278 23.599998 2.571109 -1.287423 14.371770 -2.383419 -1.289632 5.977986 0.000000 0.000000 0.000000 1.776012 3.420613 -40.616968 4.834789 -0.846914 13.362328 -8.150288 -18.694054 13.626377 0.000000 0.000000 0.000000 3.866223 -1.534481 16.193488 1.004763 0.433312 -19.365387 -9.022872 -10.550695 27.931330 3.896879 -1.286522 -29.580555 0.000000 0.000000 0.000000 4.813052 -24.502590 7.303508 -7.724726 -30.414460 -0.855184 21.390250 -11.056638 -1.499220 0.000000 0.000000 0.000000 11.775639 7.604021 2.193539 36.246110 -13.626129 -8.396218 8.479689 16.325221 1.453237 0.000000 0.000000 0.000000 
-0.057229 0.901076 3.892644 -5.319094 10.985537 0.148281 6.562489 -0.317892 21.460681 -2.255271 -1.200821 29.507531 -3.064793 -2.341129 6.269662 0.000000 0.000000 0.000000 1.844777 3.281746 -43.412249 5.251896 -1.704461 27.216450 -7.928191 -18.098163 14.371779 0.000000 0.000000 0.000000 4.782450 -2.049880 18.965189 -0.713381 0.976736 -19.735221 -9.367686 -11.585510 26.926163 3.518289 -1.846850 -21.632616 0.000000 0.000000 0.000000 3.480945 -26.351509 8.195734 -0.673652 -30.264840 -1.750721 21.582011 -12.165216 -1.773944 0.000000 0.000000 0.000000 11.234525 5.856349 1.415993 28.944890 -19.408297 -7.610393 11.951255 11.604258 1.222304 0.000000 0.000000 0.000000 
-0.057701 0.864212 3.976682 -4.619220 8.946913 -0.611585 9.539171 -0.639530 16.838443 -6.967575 0.111704 45.908237 -0.703883 2.170138 7.303175 0.000000 0.000000 0.000000 4.098973 4.932349 -48.830714 4.635676 -2.277850 45.741512 -9.769872 -21.935154 10.766179 0.000000 0.000000 0.000000 5.661839 -3.118994 26.209327 -5.015538 2.058595 -21.602123 -7.502717 -10.966904 26.329142 4.422734 -2.594176 -21.606861 0.000000 0.000000 0.000000 1.388747 -27.241193 9.079077 3.694517 -29.441154 -2.198954 26.310643 -12.236416 -2.317320 0.000000 0.000000 0.000000 13.293242 5.137621 0.787978 22.694845 -23.147658 -6.271406 12.801267 12.418304 1.377138 0.000000 0.000000 0.000000 
-0.059133 0.847251 4.045231 -4.623314 7.823731 0.000764 11.611666 -0.628201 8.391310 -10.010040 1.864989 60.923297 3.249975 8.035089 4.033555 0.000000 0.000000 0.000000 6.970960 6.790307 -51.993320 3.205589 -1.688099 57.639074 -9.734351 -22.423173 7.128481 0.000000 0.000000 0.000000 5.383055 -3.805744 32.009837 -6.028005 2.272617 -22.052200 -8.401885 -12.414298 25.465407 2.870257 -2.032117 -20.672967 0.000000 0.000000 0.000000 -0.962766 -26.295923 9.642436 4.143716 -26.485094 -1.910829 26.484809 -14.030397 -2.631018 0.000000 0.000000 0.000000 14.721370 6.993968 1.023451 21.181895 -23.658019 -5.720540 11.647247 15.550162 1.639238 0.000000 0.000000 0.000000 
-0.060207 0.841332 4.105455 -4.407966 6.204012 2.361199 10.609421 -0.367259 -1.630300 -10.179981 2.869791 72.390664 7.522072 15.389902 -0.413860 0.000000 0.000000 0.000000 7.068759 7.390664 -53.300997 4.710369 -2.528539 63.072194 -9.513324 -22.469787 4.097133 0.000000 0.000000 0.000000 5.313742 -4.353312 36.975231 -8.699901 2.754595 -23.873188 -7.624366 -13.192727 25.927544 2.889986 -2.253696 -21.782022 0.000000 0.000000 0.000000 -2.764379 -26.605801 10.637075 1.804154 -24.536670 -1.629947 25.725371 -14.999447 -2.640447 0.000000 0.000000 0.000000 13.505743 7.012346 0.719822 22.973448 -20.503266 -5.698471 10.341596 18.823220 1.782012 0.000000 0.000000 0.000000 
-0.061919 0.843064 4.163537 -4.768866 3.782762 5.509550 11.072813 -0.341199 -11.587925 -10.346292 5.071906 79.665129 9.551786 19.372596 -7.237298 0.000000 0.000000 0.000000 6.573801 7.771380 -53.391558 7.818129 -4.194495 63.690163 -9.626523 -23.115956 2.626356 0.000000 0.000000 0.000000 4.339981 -3.927695 38.712626 -8.211907 2.598001 -23.055308 -8.048044 -12.932798 24.550160 2.620720 -2.072037 -22.402514 0.000000 0.000000 0.000000 -7.351909 -25.712796 12.142292 -1.032746 -20.909096 -1.419502 23.656330 -16.059321 -2.539457 0.000000 0.000000 0.000000 15.661962 8.570270 0.880753 20.884068 -16.917861 -4.314923 8.449601 21.748861 1.731518 0.000000 0.000000 0.000000 
-0.065335 0.853431 4.224720 -5.325918 0.699147 7.494683 12.938685 0.103198 -22.040639 -8.841888 6.231702 85.106909 10.196227 20.992577 -13.837663 0.000000 0.000000 0.000000 7.738380 8.281160 -49.179744 7.869041 -3.167487 62.331269 -8.104977 -20.091533 -0.659121 0.000000 0.000000 0.000000 0.635200 -2.211792 41.173250 -6.852219 2.138379 -24.798644 -8.963426 -10.982734 25.834805 2.891824 -2.229726 -21.415917 0.000000 0.000000 0.000000 -8.172040 -25.102038 12.137367 -4.148553 -17.169179 -1.290928 20.909703 -16.704649 -2.286798 0.000000 0.000000 0.000000 17.492356 10.685169 1.916537 20.558851 -11.774063 -3.556464 2.776063 23.742825 0.852685 0.000000 0.000000 0.000000 
-0.069591 0.874828 4.293535 -6.415272 -2.871325 9.064786 15.254111 1.461239 -32.735068 -6.839114 6.276304 84.266477 9.411635 18.799962 -13.244443 0.000000 0.000000 0.000000 10.461035 8.498410 -42.254823 6.002045 -0.514767 58.302598 -6.293723 -15.458003 -3.492711 0.000000 0.000000 0.000000 -2.204689 -0.455395 41.982216 -6.481708 1.986344 -24.974978 -8.275266 -7.111564 25.625039 4.779057 -2.671361 -24.006294 0.000000 0.000000 0.000000 -8.004080 -24.483284 11.559744 -8.836401 -15.699049 -1.365040 21.250159 -16.748194 -2.322504 0.000000 0.000000 0.000000 17.276705 10.230068 2.333783 20.803530 -5.718629 -2.972992 -1.314516 24.565903 0.133627 0.000000 0.000000 0.000000 
-0.072213 0.911327 4.374106 -6.681380 -4.595145 9.942986 16.766369 2.985187 -41.201421 -7.383891 6.738519 76.559091 8.169802 16.658369 -2.143739 0.000000 0.000000 0.000000 11.565421 6.439957 -31.733860 3.145021 1.546838 48.575017 -5.256244 -12.281772 -4.520116 0.000000 0.000000 0.000000 -5.792919 1.300516 39.573908 -5.932230 1.934789 -21.941382 -8.120025 -5.014640 25.302053 6.001224 -3.355539 -22.046301 0.000000 0.000000 0.000000 -7.441485 -23.312561 10.700891 -9.220924 -14.109819 -1.395509 20.000806 -16.240489 -2.102601 0.000000 0.000000 0.000000 14.969212 9.513284 2.514175 22.336432 -1.284106 -2.800169 -6.570166 25.554802 -0.937304 0.000000 0.000000 0.000000 
-0.070801 0.956311 4.465370 -7.546492 -6.590333 11.215424 17.298909 4.400985 -46.929062 -8.418778 6.303285 61.113743 7.409087 15.964620 8.899483 0.000000 0.000000 0.000000 10.556162 4.672842 -24.914040 3.384675 1.555890 42.960980 -2.242006 -6.104044 0.602211 0.000000 0.000000 0.000000 -9.772922 3.177215 38.148567 -4.460915 1.537263 -21.817314 -8.191780 -1.753596 25.258445 8.083550 -4.602559 -19.432126 0.000000 0.000000 0.000000 -5.152437 -21.446741 9.106388 -12.993768 -11.175381 -1.663868 22.801124 -20.701854 -3.230786 0.000000 0.000000 0.000000 17.410543 6.371508 1.347124 18.194472 2.328517 -2.058069 -6.392809 27.020549 -0.862726 0.000000 0.000000 0.000000 
-0.064195 0.995405 4.563916 -8.586440 -7.619052 10.936841 17.569491 4.870886 -47.146613 -8.646618 4.151186 40.222829 5.971440 14.288827 19.567823 0.000000 0.000000 0.000000 8.086067 3.411663 -20.806270 6.166423 0.551006 46.036189 -0.460569 -5.019743 7.642303 0.000000 0.000000 0.000000 -12.371658 4.082666 35.727509 -4.273228 1.545604 -16.614167 -6.891574 -0.183207 21.633830 7.633760 -4.617039 -14.774976 0.000000 0.000000 0.000000 -4.628053 -19.467982 8.023460 -12.270203 -10.025493 -1.572279 20.506855 -23.708699 -3.312612 0.000000 0.000000 0.000000 16.374068 6.055056 1.486287 16.080365 -1.297535 -2.000522 -7.482264 33.038083 -1.410786 0.000000 0.000000 0.000000 
-0.055864 1.010412 4.668255 -11.158065 -8.953176 9.091211 18.931955 5.326936 -43.519953 -7.460530 2.114314 21.547884 3.637097 11.791333 27.978735 0.000000 0.000000 0.000000 7.261691 2.744058 -17.655826 8.361049 0.214559 57.630196 -2.064436 -6.176894 1.957224 0.000000 0.000000 0.000000 -12.604405 4.278488 36.071487 -5.041610 1.771985 -15.606701 -6.347611 1.909181 21.793375 7.487151 -4.765469 -12.236404 0.000000 0.000000 0.000000 -1.979555 -17.913055 6.768221 -13.015711 -8.713025 -1.640799 20.763104 -24.508887 -3.572477 0.000000 0.000000 0.000000 15.201347 3.535749 0.579589 12.497812 -3.198007 -1.669790 -7.867331 37.110486 -1.773987 0.000000 0.000000 0.000000 
-0.048879 0.993920 4.777454 -13.721209 -9.677234 6.692152 19.678247 5.218906 -39.834709 -5.105466 0.916681 10.719478 4.187336 12.449483 29.991602 0.000000 0.000000 0.000000 5.863749 1.966009 -13.986131 11.288980 -1.361391 73.198354 -5.403091 -13.082428 -2.547808 0.000000 0.000000 0.000000 -11.184220 3.575136 35.464876 -7.178516 2.571481 -12.654178 -4.785539 2.784205 19.697258 6.534787 -4.960425 -5.668595 0.000000 0.000000 0.000000 -6.616127 -17.921479 7.318647 -7.159286 -6.335850 -1.140900 22.226608 -21.119661 -3.441422 0.000000 0.000000 0.000000 11.631173 3.929842 1.033468 11.660665 -7.668907 -1.702296 -5.736405 38.307460 -1.130668 0.000000 0.000000 0.000000 
